<svg xmlns="http://www.w3.org/2000/svg" xmlns:xlink="http://www.w3.org/1999/xlink" width="500" zoomAndPan="magnify" viewBox="0 0 375 374.999991" height="500" preserveAspectRatio="xMidYMid meet" version="1.0"><defs><g/></defs><rect x="-37.5" width="450" fill="#ffffff" y="-37.499999" height="449.999989" fill-opacity="1"/><rect x="-37.5" width="450" fill="#ffffff" y="-37.499999" height="449.999989" fill-opacity="1"/><g fill="#cb6ce6" fill-opacity="1"><g transform="translate(107.080129, 233.542318)"><g><path d="M -3.171875 -153.8125 L 31.34375 -153.8125 L 109.3125 -58.234375 L 109.3125 -131.734375 C 109.3125 -139.554688 108.410156 -144.445312 106.609375 -146.40625 C 104.335938 -148.988281 100.695312 -150.28125 95.6875 -150.28125 L 91.234375 -150.28125 L 91.234375 -153.8125 L 135.609375 -153.8125 L 135.609375 -150.28125 L 131.03125 -150.28125 C 125.625 -150.28125 121.828125 -148.675781 119.640625 -145.46875 C 118.234375 -143.4375 117.53125 -138.859375 117.53125 -131.734375 L 117.53125 -24.296875 L 114.125 -24.296875 L 30.171875 -126.921875 L 30.171875 -48.484375 C 30.171875 -40.660156 31.03125 -35.769531 32.75 -33.8125 C 35.101562 -31.226562 38.742188 -29.9375 43.671875 -29.9375 L 48.25 -29.9375 L 48.25 -26.421875 L 3.875 -26.421875 L 3.875 -29.9375 L 8.34375 -29.9375 C 13.738281 -29.9375 17.570312 -31.539062 19.84375 -34.75 C 21.25 -36.789062 21.953125 -41.367188 21.953125 -48.484375 L 21.953125 -137.015625 C 18.191406 -141.398438 15.375 -144.273438 13.5 -145.640625 C 11.625 -147.015625 8.804688 -148.289062 5.046875 -149.46875 C 3.242188 -150.007812 0.503906 -150.28125 -3.171875 -150.28125 Z M -3.171875 -153.8125 "/></g></g></g><path stroke-linecap="butt" transform="matrix(3.852452, 0, 0, 3.852452, 155.92533, 70.546651)" fill="none" stroke-linejoin="miter" d="M 12.215349 15.992309 L 12.215349 15.080754 L 26.355086 15.080754 L 26.355086 15.992309 L 25.157594 15.992309 C 23.821189 15.992309 22.835615 16.386741 22.201887 17.176619 C 21.820636 17.705909 21.628997 18.956127 21.628997 20.926261 L 21.628997 37.11015 C 21.628997 39.59335 21.360297 41.607084 20.821881 43.151352 C 20.283466 44.688522 19.342507 46.033039 17.996976 47.187945 C 16.659556 48.333725 15.05445 48.906615 13.17963 48.906615 C 11.642459 48.906615 10.436855 48.524351 9.559776 47.760835 C 8.682696 46.99732 8.244664 46.129366 8.244664 45.156974 C 8.244664 44.367096 8.448471 43.767842 8.857098 43.360229 C 9.386388 42.848176 10.015046 42.591643 10.744087 42.591643 C 11.257153 42.591643 11.721548 42.765031 12.137274 43.112821 C 12.554013 43.459597 13.075191 44.375207 13.699794 45.859652 C 14.091184 46.727605 14.567747 47.161582 15.132526 47.161582 C 15.58374 47.161582 16.000479 46.892881 16.38173 46.354466 C 16.77312 45.816051 16.967802 44.870022 16.967802 43.516379 L 16.967802 20.926261 C 16.967802 19.260317 16.855252 18.153067 16.629137 17.60654 C 16.464875 17.198927 16.130267 16.855193 15.62734 16.57838 C 14.915537 16.18699 14.173315 15.992309 13.400674 15.992309 Z M 12.215349 15.992309 " stroke="#07363c" stroke-width="2.599998" stroke-opacity="1" stroke-miterlimit="4"/><g fill="#cb6ce6" fill-opacity="1"><g transform="translate(182.772104, 282.431502)"><g><path d="M 20.1875 -150.28125 L 20.1875 -153.796875 L 74.671875 -153.796875 L 74.671875 -150.28125 L 70.09375 -150.28125 C 64.925781 -150.28125 61.128906 -148.753906 58.703125 -145.703125 C 57.210938 -143.660156 56.46875 -138.84375 56.46875 -131.25 L 56.46875 -68.921875 C 56.46875 -59.367188 55.429688 -51.617188 53.359375 -45.671875 C 51.285156 -39.722656 47.664062 -34.535156 42.5 -30.109375 C 37.332031 -25.691406 31.148438 -23.484375 23.953125 -23.484375 C 18.003906 -23.484375 13.347656 -24.945312 9.984375 -27.875 C 6.617188 -30.8125 4.9375 -34.160156 4.9375 -37.921875 C 4.9375 -40.972656 5.71875 -43.28125 7.28125 -44.84375 C 9.3125 -46.800781 11.738281 -47.78125 14.5625 -47.78125 C 16.519531 -47.78125 18.300781 -47.113281 19.90625 -45.78125 C 21.507812 -44.457031 23.523438 -40.9375 25.953125 -35.21875 C 27.429688 -31.851562 29.269531 -30.171875 31.46875 -30.171875 C 33.1875 -30.171875 34.785156 -31.207031 36.265625 -33.28125 C 37.753906 -35.351562 38.5 -39.015625 38.5 -44.265625 L 38.5 -131.25 C 38.5 -137.664062 38.070312 -141.929688 37.21875 -144.046875 C 36.59375 -145.617188 35.300781 -146.953125 33.34375 -148.046875 C 30.601562 -149.535156 27.742188 -150.28125 24.765625 -150.28125 Z M 20.1875 -150.28125 "/></g></g></g></svg>